<svg width="260" height="60" viewBox="0 0 260 60" fill="none" xmlns="http://www.w3.org/2000/svg">
<path d="M28.0979 15.8541C28.6966 14.0115 31.3034 14.0115 31.9021 15.8541L34.0413 22.4377C34.309 23.2617 35.0769 23.8197 35.9434 23.8197H42.8658C44.8032 23.8197 45.6088 26.2989 44.0413 27.4377L38.441 31.5066C37.74 32.0159 37.4467 32.9186 37.7145 33.7426L39.8536 40.3262C40.4523 42.1689 38.3433 43.7011 36.7759 42.5623L31.1756 38.4934C30.4746 37.9841 29.5254 37.9841 28.8244 38.4934L23.2241 42.5623C21.6567 43.7011 19.5477 42.1689 20.1464 40.3262L22.2855 33.7426C22.5533 32.9186 22.26 32.0159 21.559 31.5066L15.9587 27.4377C14.3912 26.2989 15.1968 23.8197 17.1342 23.8197H24.0566C24.9231 23.8197 25.691 23.2617 25.9587 22.4377L28.0979 15.8541Z" fill="#F1A901"/>
<path d="M78.0979 15.8541C78.6966 14.0115 81.3034 14.0115 81.9021 15.8541L84.0413 22.4377C84.309 23.2617 85.0769 23.8197 85.9434 23.8197H92.8658C94.8032 23.8197 95.6088 26.2989 94.0413 27.4377L88.441 31.5066C87.74 32.0159 87.4467 32.9186 87.7145 33.7426L89.8536 40.3262C90.4523 42.1689 88.3433 43.7011 86.7759 42.5623L81.1756 38.4934C80.4746 37.9841 79.5254 37.9841 78.8244 38.4934L73.2241 42.5623C71.6567 43.7011 69.5477 42.1689 70.1464 40.3262L72.2855 33.7426C72.5533 32.9186 72.26 32.0159 71.559 31.5066L65.9587 27.4377C64.3912 26.2989 65.1968 23.8197 67.1342 23.8197H74.0566C74.9231 23.8197 75.691 23.2617 75.9587 22.4377L78.0979 15.8541Z" fill="#F1A901"/>
<path d="M128.098 15.8541C128.697 14.0115 131.303 14.0115 131.902 15.8541L134.041 22.4377C134.309 23.2617 135.077 23.8197 135.943 23.8197H142.866C144.803 23.8197 145.609 26.2989 144.041 27.4377L138.441 31.5066C137.74 32.0159 137.447 32.9186 137.714 33.7426L139.854 40.3262C140.452 42.1689 138.343 43.7011 136.776 42.5623L131.176 38.4934C130.475 37.9841 129.525 37.9841 128.824 38.4934L123.224 42.5623C121.657 43.7011 119.548 42.1689 120.146 40.3262L122.286 33.7426C122.553 32.9186 122.26 32.0159 121.559 31.5066L115.959 27.4377C114.391 26.2989 115.197 23.8197 117.134 23.8197H124.057C124.923 23.8197 125.691 23.2617 125.959 22.4377L128.098 15.8541Z" fill="#F1A901"/>
<path d="M178.098 15.8541C178.697 14.0115 181.303 14.0115 181.902 15.8541L184.041 22.4377C184.309 23.2617 185.077 23.8197 185.943 23.8197H192.866C194.803 23.8197 195.609 26.2989 194.041 27.4377L188.441 31.5066C187.74 32.0159 187.447 32.9186 187.714 33.7426L189.854 40.3262C190.452 42.1689 188.343 43.7011 186.776 42.5623L181.176 38.4934C180.475 37.9841 179.525 37.9841 178.824 38.4934L173.224 42.5623C171.657 43.7011 169.548 42.1689 170.146 40.3262L172.286 33.7426C172.553 32.9186 172.26 32.0159 171.559 31.5066L165.959 27.4377C164.391 26.2989 165.197 23.8197 167.134 23.8197H174.057C174.923 23.8197 175.691 23.2617 175.959 22.4377L178.098 15.8541Z" fill="#F1A901"/>
<path d="M228.098 15.8541C228.697 14.0115 231.303 14.0115 231.902 15.8541L234.041 22.4377C234.309 23.2617 235.077 23.8197 235.943 23.8197H242.866C244.803 23.8197 245.609 26.2989 244.041 27.4377L238.441 31.5066C237.74 32.0159 237.447 32.9186 237.714 33.7426L239.854 40.3262C240.452 42.1689 238.343 43.7011 236.776 42.5623L231.176 38.4934C230.475 37.9841 229.525 37.9841 228.824 38.4934L223.224 42.5623C221.657 43.7011 219.548 42.1689 220.146 40.3262L222.286 33.7426C222.553 32.9186 222.26 32.0159 221.559 31.5066L215.959 27.4377C214.391 26.2989 215.197 23.8197 217.134 23.8197H224.057C224.923 23.8197 225.691 23.2617 225.959 22.4377L228.098 15.8541Z" fill="#F1A901"/>
</svg>
